<svg xmlns="http://www.w3.org/2000/svg" viewBox="0 0 580 142"><g fill="none" stroke-width="2"><path stroke="#9292ad" d="M577 8.05a5.55 5.55 0 0 0-5.55-5.55H8.05A5.55 5.55 0 0 0 2.5 8.05v125.9a5.55 5.55 0 0 0 5.55 5.55h563.4a5.55 5.55 0 0 0 5.55-5.55V8.05" vector-effect="non-scaling-stroke"/><path stroke="#96b8fa" d="M116.31 35.94c-27.54-24.23-70.37-9.87-79.79 24.95-6.81 25.19 7.74 49.96 31.65 59.05q11.74 4.47 22.31 2.57c41.27-7.39 59.47-56.99 25.83-86.57m358.96 8.47a2.89 2.89 0 0 0-.27 1.22V85.8a1.93 1.93 0 0 0 2.81 1.71l15.48-7.96a.85.82-44.3 0 1 .77 0l15.09 7.86a1.95 1.95 0 0 0 2.85-1.73V45.26a3.24 3.24 0 0 0-3.22-3.24q-14.7-.07-29.35.01c-1.82.01-3.39.77-4.16 2.38" vector-effect="non-scaling-stroke"/><path stroke="#9292ad" d="M167.5 48.1a.35.35 0 0 1 .35-.35h10.43a.35.35 0 0 0 .34-.3l.18-1.3a.35.35 0 0 0-.34-.4h-12.79a.35.35 0 0 0-.35.34l-.24 13.55a.35.35 0 0 0 .35.36h1.72a.35.35 0 0 0 .35-.35v-5.1a.35.35 0 0 1 .35-.35l5.75.08a.35.35 0 0 0 .35-.39l-.1-1.07a.35.35 0 0 0-.35-.32h-5.65a.35.35 0 0 1-.35-.35V48.1m16.06 9.69-.19-2.33a.65.65 0 0 1 .65-.71h4.48a.77.77 0 0 0 .36-1.45c-1.49-.79-3.26.11-4.57-.15a1.57 1.56 49.3 0 1 .23-3.1q2.68-.13 6.46.15 1.14.08 1.76-.37a.79.79 0 0 0-.46-1.42l-10.38-.02q-.65 0-.65.65v10.21q0 .75.75.75h10.31q.69 0 .69-.69v-.49q.01-.57-.56-.57h-8.39q-.46 0-.49-.46m20.3-9.28q-1.42-.44-1.93.39-3.18 5.09-6.3 10.28-.32.54.27.77c1.73.67 2.32-1.12 2.89-2.26a.8.79-76.7 0 1 .71-.44h7.29a.74.74 0 0 1 .73.62q.37 2.35 2.71 2.15.64-.06.31-.61l-6.18-10.49a.91.9-5.3 0 0-.5-.41m12.39 2.15v8.59q0 .75.75.75h.75q.75 0 .75-.75v-8.51a.64.64 0 0 1 .52-.63q2-.4 4.01 0 .74.15.98-.57a.8.8 0 0 0-.77-1.04h-11.99q-.5 0-.5.5v.37a.62.62 0 0 0 .62.62l4.23.02a.65.65 0 0 1 .65.65m13.25 7.09v-8.51a1.08 1.08 0 0 0-1.86-.75q-.55.57-.52 1.77.13 4.34.47 8.18A1.72 1.71-2.6 0 0 229.3 60l8.8-.01a2.15 2.15 0 0 0 2.15-2.15v-8.71q0-.63-.63-.63h-1q-.62 0-.62.62v8.63q0 .5-.5.5H230q-.5 0-.5-.5m37-3h4.76a.74.74 0 0 0 .18-1.46q-2.37-.59-4.78.08a.51.5 81.7 0 1-.64-.48l-.03-2.4q0-.53.52-.52l8.45.1q.54.01.54-.53v-.58q0-.54-.54-.53l-10.43.05q-.49 0-.49.49l-.12 10.49q-.01.54.54.54h10.36q.61 0 .8-.59l.13-.43q.23-.73-.53-.73h-8.47q-.75 0-.75-.75v-2.25q0-.5.5-.5m57.473-4.426a1.99 1.99 0 0 0-1.983-1.997l-10-.035a1.99 1.99 0 0 0-1.997 1.983l-.027 7.7a1.99 1.99 0 0 0 1.983 1.997l10 .035a1.99 1.99 0 0 0 1.997-1.983l.027-7.7m7.667 1.366 9.32 8.18a.92.92 0 0 0 1.52-.69l.06-10.19q0-.49-.49-.49h-.94q-.64 0-.63.64l.08 7.2q0 .67-.5.23l-9.27-8.11a1.04 1.03 20.5 0 0-1.72.78l.03 10.18q0 .58.57.58h.86q.53 0 .53-.53l-.02-7.52q0-.79.6-.26m-83.43 3.81h2.53q.46 0 .78.34c1.78 1.91 4.24 5.1 6.24 3.96q.52-.3.06-.68l-3.79-3.18a.39.39 0 0 1 .38-.67q1.27.44 2.5-.38a.37.35 83.7 0 0 .15-.2q1.01-2.8.01-5.63a.84.84 0 0 0-.79-.56h-10.16q-.38 0-.38.38l-.03 10.47q0 .65.64.65h1a.56.56 0 0 0 .56-.6l-.22-3.35q-.03-.55.52-.55m32.55-6.63-.02 10.66a.4.4 0 0 0 .4.4l7.78.01a5.58 5.19.1 0 0 5.59-5.18v-1.08a5.58 5.19.1 0 0-5.57-5.2l-7.78-.01a.4.4 0 0 0-.4.4" vector-effect="non-scaling-stroke"/><path stroke="gray" d="m199.47 102.49 2.4 5.94q.24.57.86.57h1.74q.6 0 .37-.54l-8.62-20.72a1.59 1.59 0 0 0-2.95.04l-8.04 20.54q-.27.68.46.68h1.33q.55 0 .75-.51l2.43-5.97q.21-.52.77-.52h7.76q.54 0 .74.49m11.02-15.04a.43.43 0 0 0-.43-.43h-1.88a.43.43 0 0 0-.43.43v21.14a.43.43 0 0 0 .43.43h1.88a.43.43 0 0 0 .43-.43V87.45M221.13 90a.37.37 0 0 1 .37.37v18.26a.37.37 0 0 0 .37.37h1.77a.37.37 0 0 0 .37-.37l-.02-18.26a.37.37 0 0 1 .37-.37h6.52a.37.37 0 0 0 .37-.37v-2.26a.37.37 0 0 0-.37-.37h-16.26a.37.37 0 0 0-.37.37v2.26a.37.37 0 0 0 .37.37h6.51m21.773 19.028a11.04 10.23 89 0 0 10.036-11.217 11.04 10.23 89 0 0-10.421-10.86 11.04 10.23 89 0 0-10.036 11.217 11.04 10.23 89 0 0 10.421 10.86m23.5.01a11.04 10.24 89 0 0 10.046-11.217 11.04 10.24 89 0 0-10.431-10.86 11.04 10.24 89 0 0-10.046 11.217 11.04 10.24 89 0 0 10.431 10.86M283.44 106a.44.44 0 0 1-.44-.44V87.44a.44.44 0 0 0-.44-.44h-1.61a.44.44 0 0 0-.44.44l-.03 21.12a.44.44 0 0 0 .44.44h12.14a.44.44 0 0 0 .44-.44v-2.12a.44.44 0 0 0-.44-.44h-9.62m15.8-13.39a.44.44 0 0 1 .81-.24l10.66 16.29a1.52 1.52 0 0 0 2.79-.84V87.5q0-.5-.5-.5h-1.5q-.5 0-.5.5v16.04a.3.3 0 0 1-.55.17l-10.71-16.39a1.63 1.63 0 0 0-2.99.89v20.29q0 .5.5.5h1.42q.6 0 .59-.6l-.02-15.79M321.35 106a.35.35 0 0 1-.35-.35v-6.3a.35.35 0 0 1 .35-.35h11.32a.35.35 0 0 0 .35-.35v-2.3a.35.35 0 0 0-.35-.35h-11.32a.35.35 0 0 1-.35-.35v-5.3a.35.35 0 0 1 .35-.35h12.05a.35.35 0 0 0 .35-.35v-2.3a.35.35 0 0 0-.35-.35h-14.3a.35.35 0 0 0-.35.35v21.3a.35.35 0 0 0 .35.35h14.8a.35.35 0 0 0 .35-.35v-2.3a.35.35 0 0 0-.35-.35h-12.55m25.12-15.68a.32.32 0 0 1 .32-.32h6.39a.32.32 0 0 0 .32-.32v-2.36a.32.32 0 0 0-.32-.32h-16.11a.32.32 0 0 0-.32.32v2.36a.32.32 0 0 0 .32.32h6.62a.32.32 0 0 1 .32.32l-.02 18.36a.32.32 0 0 0 .32.32h1.88a.32.32 0 0 0 .32-.32l-.04-18.36m26.82 6.38c-3.48-8.36-15.21-1.72-12.1 7.27 2.24 6.49 11.41 6.9 12.84-.25q.11-.59-.48-.69-2.26-.41-2.75 1.72a1.01.99 86.2 0 1-.61.71c-7.82 3.12-8.93-8.29-3.29-9.43q2.51-.51 4.45 1.84a1.15 1.15 0 0 0 1.94-1.17m9.492 12.33a8.03 7.32 90.2 0 0 7.348-8.004 8.03 7.32 90.2 0 0-7.292-8.056 8.03 7.32 90.2 0 0-7.348 8.004 8.03 7.32 90.2 0 0 7.292 8.056m17.988-12.7a2.5 2.49-78 0 1 1.47 2.28l.01 9.89q0 .5.5.5h1.28a.72.72 0 0 0 .72-.73c-.01-3.06-1.6-15.18 5.57-11.82a2.04 2.04 0 0 1 1.18 1.85v10.2q0 .5.5.5h1.51q.55 0 .53-.55c-.07-3.17.72-10.6-.75-13.16-2.27-3.95-6.02-2.12-8.44.49q-.4.43-.69-.08c-2.28-4-5.79-3.09-8.22.02a.42.41-22.8 0 1-.74-.3l.22-1.8a.56.55-86.8 0 0-.55-.62h-1.36q-.49 0-.49.49l-.06 14.99q-.01.52.52.52h1.51q.52 0 .52-.52c-.03-2.89-1.45-15.16 5.26-12.15m-44.285 10.242a.61.61 0 0 0-.627-.593l-1.539.043a.61.61 0 0 0-.593.627l.05 1.779a.61.61 0 0 0 .627.593l1.539-.043a.61.61 0 0 0 .593-.627l-.05-1.779" vector-effect="non-scaling-stroke"/><path stroke="#1e64f2" d="M83.39 47.79q-.42-.43-1.24-.16-.47.16-.76.55C70.03 63.69 60.98 81.3 51.32 97.96a.92.91-45.8 0 0 .01.93c3.39 5.51 13.1 2.32 18.59 2.34q11.15.06 22.28.73c5.93.36 15.62 1.21 20.41-.42q.46-.16.62-.62.28-.84-.49-1.61" vector-effect="non-scaling-stroke"/><path stroke="#96b8fa" d="M112.74 99.31q1.6.11 1.93-.72" vector-effect="non-scaling-stroke"/><path stroke="#1e64f2" d="M114.67 98.59q1.8.64.93-2.75-.3-1.15-1.08-2.46-8.24-13.79-16.68-27.46c-1.88-3.06-3.27-6.14-5.4-9.04q-3.24-4.4-5.95-9.15a1 .99 78 0 0-.73-.48q-.68-.09-1.16.29" vector-effect="non-scaling-stroke"/><path stroke="#96b8fa" d="M84.6 47.54q-.5-.77-1.21.25" vector-effect="non-scaling-stroke"/><path stroke="#87acf7" d="m84.6 47.54 30.07 51.05m-1.93.72-58.96.1q-.82.01-.4-.71l30.01-50.91" vector-effect="non-scaling-stroke"/><g stroke="#96b8fa"><path d="M493.59 74.5a.34.34 0 0 1 .32 0l13.59 7.17a.34.34 0 0 0 .5-.3V46.59a.34.34 0 0 0-.34-.34h-28.07a.34.34 0 0 0-.34.34v34.8a.34.34 0 0 0 .5.3l13.84-7.19" vector-effect="non-scaling-stroke"/><path d="M497.22 58.18a1.47 1.47 0 0 1-1.06-1.06l-1.01-3.91a1.47 1.47 0 0 0-2.84 0l-1.01 3.91a1.47 1.47 0 0 1-1.06 1.06l-3.91 1.01a1.47 1.47 0 0 0 0 2.84l3.91 1.01a1.47 1.47 0 0 1 1.06 1.06l1.01 3.91a1.47 1.47 0 0 0 2.84 0l1.01-3.91a1.47 1.47 0 0 1 1.06-1.06l3.91-1.01a1.47 1.47 0 0 0 0-2.84l-3.91-1.01" vector-effect="non-scaling-stroke"/></g><path stroke="#87acf7" d="M70.22 89.45a.32.32 0 0 0 .28.48l27.11-.11a.32.32 0 0 0 .28-.48l-13.5-23.1a.32.32 0 0 0-.56 0L70.22 89.45" vector-effect="non-scaling-stroke"/><path stroke="#9292ad" d="M200.15 55.3a.33.33 0 0 0 .3.49l5.2-.07a.33.33 0 0 0 .28-.5l-2.67-4.69a.33.33 0 0 0-.58.01l-2.53 4.76m121.619-4.734a.32.32 0 0 0-.318-.322l-9.1-.048a.32.32 0 0 0-.322.318l-.039 7.38a.32.32 0 0 0 .318.322l9.1.048a.32.32 0 0 0 .322-.318l.039-7.38m-66.518.283a.81.81 0 0 0-.802-.818l-5.88-.062a.81.81 0 0 0-.818.802l-.022 2.14a.81.81 0 0 0 .801.818l5.88.062a.81.81 0 0 0 .818-.802l.022-2.14m27.49-.199.02 7.02a.61.61 0 0 0 .61.6l4.83-.01a4.3 3.95-.2 0 0 4.29-3.97v-.34a4.3 3.95-.2 0 0-4.31-3.93l-4.83.01a.61.61 0 0 0-.61.62" vector-effect="non-scaling-stroke"/><path stroke="#1e64f2" d="M76.58 88.73c3.39.15 7.35.06 10.85-1.06q.4-.13.8-.02l3.45.96a1.35 1.35 0 0 0 1.54-1.95l-7.98-14.63a1.46 1.46 0 0 0-2.56 0l-7.62 14.02a1.82 1.81 15.5 0 0 1.52 2.68" vector-effect="non-scaling-stroke"/><path stroke="gray" d="M191.64 98.55a.32.32 0 0 0 .3.44l5.63.02a.32.32 0 0 0 .31-.43l-2.78-7.54a.32.32 0 0 0-.6 0l-2.86 7.51m50.902 7.629a8.17 7.53 90.9 0 0 7.657-8.051 8.17 7.53 90.9 0 0-7.401-8.287 8.17 7.53 90.9 0 0-7.657 8.051 8.17 7.53 90.9 0 0 7.401 8.287m23.62.001a8.17 7.55 90.2 0 0 7.579-8.144 8.17 7.55 90.2 0 0-7.522-8.196 8.17 7.55 90.2 0 0-7.579 8.144 8.17 7.55 90.2 0 0 7.522 8.196m116.711-.07a5.12 4.72 89.3 0 0 4.657-5.177 5.12 4.72 89.3 0 0-4.782-5.062 5.12 4.72 89.3 0 0-4.657 5.177 5.12 4.72 89.3 0 0 4.782 5.062" vector-effect="non-scaling-stroke"/></g><path fill="#25255a" d="M6.56 0h565.99c5.76 1.35 6.94 4.86 6.95 10.59q.02 60.3-.02 120.6c0 5.85-1.36 10.01-7.54 10.81H7.19q-5.82-1.07-7.19-6.83V7.21Q1.11 1.47 6.56 0zM577 8.05a5.55 5.55 0 0 0-5.55-5.55H8.05A5.55 5.55 0 0 0 2.5 8.05v125.9a5.55 5.55 0 0 0 5.55 5.55h563.4a5.55 5.55 0 0 0 5.55-5.55V8.05z"/><path fill="#fff" d="M577 133.95a5.55 5.55 0 0 1-5.55 5.55H8.05a5.55 5.55 0 0 1-5.55-5.55V8.05A5.55 5.55 0 0 1 8.05 2.5h563.4A5.55 5.55 0 0 1 577 8.05v125.9zM116.31 35.94c-27.54-24.23-70.37-9.87-79.79 24.95-6.81 25.19 7.74 49.96 31.65 59.05q11.74 4.47 22.31 2.57c41.27-7.39 59.47-56.99 25.83-86.57zm358.96 8.47a2.89 2.89 0 0 0-.27 1.22V85.8a1.93 1.93 0 0 0 2.81 1.71l15.48-7.96a.85.82-44.3 0 1 .77 0l15.09 7.86a1.95 1.95 0 0 0 2.85-1.73V45.26a3.24 3.24 0 0 0-3.22-3.24q-14.7-.07-29.35.01c-1.82.01-3.39.77-4.16 2.38zM167.5 48.1a.35.35 0 0 1 .35-.35h10.43a.35.35 0 0 0 .34-.3l.18-1.3a.35.35 0 0 0-.34-.4h-12.79a.35.35 0 0 0-.35.34l-.24 13.55a.35.35 0 0 0 .35.36h1.72a.35.35 0 0 0 .35-.35v-5.1a.35.35 0 0 1 .35-.35l5.75.08a.35.35 0 0 0 .35-.39l-.1-1.07a.35.35 0 0 0-.35-.32h-5.65a.35.35 0 0 1-.35-.35V48.1zm16.06 9.69-.19-2.33a.65.65 0 0 1 .65-.71h4.48a.77.77 0 0 0 .36-1.45c-1.49-.79-3.26.11-4.57-.15a1.57 1.56 49.3 0 1 .23-3.1q2.68-.13 6.46.15 1.14.08 1.76-.37a.79.79 0 0 0-.46-1.42l-10.38-.02q-.65 0-.65.65v10.21q0 .75.75.75h10.31q.69 0 .69-.69v-.49q.01-.57-.56-.57h-8.39q-.46 0-.49-.46zm20.3-9.28q-1.42-.44-1.93.39-3.18 5.09-6.3 10.28-.32.54.27.77c1.73.67 2.32-1.12 2.89-2.26a.8.79-76.7 0 1 .71-.44h7.29a.74.74 0 0 1 .73.62q.37 2.35 2.71 2.15.64-.06.31-.61l-6.18-10.49a.91.9-5.3 0 0-.5-.41zm12.39 2.15v8.59q0 .75.75.75h.75q.75 0 .75-.75v-8.51a.64.64 0 0 1 .52-.63q2-.4 4.01 0 .74.15.98-.57a.8.8 0 0 0-.77-1.04h-11.99q-.5 0-.5.5v.37a.62.62 0 0 0 .62.62l4.23.02a.65.65 0 0 1 .65.65zm13.25 7.09v-8.51a1.08 1.08 0 0 0-1.86-.75q-.55.57-.52 1.77.13 4.34.47 8.18A1.72 1.71-2.6 0 0 229.3 60l8.8-.01a2.15 2.15 0 0 0 2.15-2.15v-8.71q0-.63-.63-.63h-1q-.62 0-.62.62v8.63q0 .5-.5.5H230q-.5 0-.5-.5zm37-3h4.76a.74.74 0 0 0 .18-1.46q-2.37-.59-4.78.08a.51.5 81.7 0 1-.64-.48l-.03-2.4q0-.53.52-.52l8.45.1q.54.01.54-.53v-.58q0-.54-.54-.53l-10.43.05q-.49 0-.49.49l-.12 10.49q-.01.54.54.54h10.36q.61 0 .8-.59l.13-.43q.23-.73-.53-.73h-8.47q-.75 0-.75-.75v-2.25q0-.5.5-.5zm57.473-4.426a1.99 1.99 0 0 0-1.983-1.997l-10-.035a1.99 1.99 0 0 0-1.997 1.983l-.027 7.7a1.99 1.99 0 0 0 1.983 1.997l10 .035a1.99 1.99 0 0 0 1.997-1.983l.027-7.7zm7.667 1.366 9.32 8.18a.92.92 0 0 0 1.52-.69l.06-10.19q0-.49-.49-.49h-.94q-.64 0-.63.64l.08 7.2q0 .67-.5.23l-9.27-8.11a1.04 1.03 20.5 0 0-1.72.78l.03 10.18q0 .58.57.58h.86q.53 0 .53-.53l-.02-7.52q0-.79.6-.26zm-83.43 3.81h2.53q.46 0 .78.34c1.78 1.91 4.24 5.1 6.24 3.96q.52-.3.06-.68l-3.79-3.18a.39.39 0 0 1 .38-.67q1.27.44 2.5-.38a.37.35 83.7 0 0 .15-.2q1.01-2.8.01-5.63a.84.84 0 0 0-.79-.56h-10.16q-.38 0-.38.38l-.03 10.47q0 .65.64.65h1a.56.56 0 0 0 .56-.6l-.22-3.35q-.03-.55.52-.55zm32.55-6.63-.02 10.66a.4.4 0 0 0 .4.4l7.78.01a5.58 5.19.1 0 0 5.59-5.18v-1.08a5.58 5.19.1 0 0-5.57-5.2l-7.78-.01a.4.4 0 0 0-.4.4zm-81.29 53.62 2.4 5.94q.24.57.86.57h1.74q.6 0 .37-.54l-8.62-20.72a1.59 1.59 0 0 0-2.95.04l-8.04 20.54q-.27.68.46.68h1.33q.55 0 .75-.51l2.43-5.97q.21-.52.77-.52h7.76q.54 0 .74.49zm11.02-15.04a.43.43 0 0 0-.43-.43h-1.88a.43.43 0 0 0-.43.43v21.14a.43.43 0 0 0 .43.43h1.88a.43.43 0 0 0 .43-.43V87.45zM221.13 90a.37.37 0 0 1 .37.37v18.26a.37.37 0 0 0 .37.37h1.77a.37.37 0 0 0 .37-.37l-.02-18.26a.37.37 0 0 1 .37-.37h6.52a.37.37 0 0 0 .37-.37v-2.26a.37.37 0 0 0-.37-.37h-16.26a.37.37 0 0 0-.37.37v2.26a.37.37 0 0 0 .37.37h6.51zm21.773 19.028a11.04 10.23 89 0 0 10.036-11.217 11.04 10.23 89 0 0-10.421-10.86 11.04 10.23 89 0 0-10.036 11.217 11.04 10.23 89 0 0 10.421 10.86zm23.5.01a11.04 10.24 89 0 0 10.046-11.217 11.04 10.24 89 0 0-10.431-10.86 11.04 10.24 89 0 0-10.046 11.217 11.04 10.24 89 0 0 10.431 10.86zM283.44 106a.44.44 0 0 1-.44-.44V87.44a.44.44 0 0 0-.44-.44h-1.61a.44.44 0 0 0-.44.44l-.03 21.12a.44.44 0 0 0 .44.44h12.14a.44.44 0 0 0 .44-.44v-2.12a.44.44 0 0 0-.44-.44h-9.62zm15.8-13.39a.44.44 0 0 1 .81-.24l10.66 16.29a1.52 1.52 0 0 0 2.79-.84V87.5q0-.5-.5-.5h-1.5q-.5 0-.5.5v16.04a.3.3 0 0 1-.55.17l-10.71-16.39a1.63 1.63 0 0 0-2.99.89v20.29q0 .5.5.5h1.42q.6 0 .59-.6l-.02-15.79zM321.35 106a.35.35 0 0 1-.35-.35v-6.3a.35.35 0 0 1 .35-.35h11.32a.35.35 0 0 0 .35-.35v-2.3a.35.35 0 0 0-.35-.35h-11.32a.35.35 0 0 1-.35-.35v-5.3a.35.35 0 0 1 .35-.35h12.05a.35.35 0 0 0 .35-.35v-2.3a.35.35 0 0 0-.35-.35h-14.3a.35.35 0 0 0-.35.35v21.3a.35.35 0 0 0 .35.35h14.8a.35.35 0 0 0 .35-.35v-2.3a.35.35 0 0 0-.35-.35h-12.55zm25.12-15.68a.32.32 0 0 1 .32-.32h6.39a.32.32 0 0 0 .32-.32v-2.36a.32.32 0 0 0-.32-.32h-16.11a.32.32 0 0 0-.32.32v2.36a.32.32 0 0 0 .32.32h6.62a.32.32 0 0 1 .32.32l-.02 18.36a.32.32 0 0 0 .32.32h1.88a.32.32 0 0 0 .32-.32l-.04-18.36zm26.82 6.38c-3.48-8.36-15.21-1.72-12.1 7.27 2.24 6.49 11.41 6.9 12.84-.25q.11-.59-.48-.69-2.26-.41-2.75 1.72a1.01.99 86.2 0 1-.61.71c-7.82 3.12-8.93-8.29-3.29-9.43q2.51-.51 4.45 1.84a1.15 1.15 0 0 0 1.94-1.17zm9.492 12.33a8.03 7.32 90.2 0 0 7.348-8.004 8.03 7.32 90.2 0 0-7.292-8.056 8.03 7.32 90.2 0 0-7.348 8.004 8.03 7.32 90.2 0 0 7.292 8.056zm17.988-12.7a2.5 2.49-78 0 1 1.47 2.28l.01 9.89q0 .5.5.5h1.28a.72.72 0 0 0 .72-.73c-.01-3.06-1.6-15.18 5.57-11.82a2.04 2.04 0 0 1 1.18 1.85v10.2q0 .5.5.5h1.51q.55 0 .53-.55c-.07-3.17.72-10.6-.75-13.16-2.27-3.95-6.02-2.12-8.44.49q-.4.43-.69-.08c-2.28-4-5.79-3.09-8.22.02a.42.41-22.8 0 1-.74-.3l.22-1.8a.56.55-86.8 0 0-.55-.62h-1.36q-.49 0-.49.49l-.06 14.99q-.01.52.52.52h1.51q.52 0 .52-.52c-.03-2.89-1.45-15.16 5.26-12.15zm-44.285 10.242a.61.61 0 0 0-.627-.593l-1.539.043a.61.61 0 0 0-.593.627l.05 1.779a.61.61 0 0 0 .627.593l1.539-.043a.61.61 0 0 0 .593-.627l-.05-1.779z"/><path fill="#2c70f5" d="M116.31 35.94c33.64 29.58 15.44 79.18-25.83 86.57q-10.57 1.9-22.31-2.57c-23.91-9.09-38.46-33.86-31.65-59.05 9.42-34.82 52.25-49.18 79.79-24.95zM83.39 47.79q-.42-.43-1.24-.16-.47.16-.76.55C70.03 63.69 60.98 81.3 51.32 97.96a.92.91-45.8 0 0 .01.93c3.39 5.51 13.1 2.32 18.59 2.34q11.15.06 22.28.73c5.93.36 15.62 1.21 20.41-.42q.46-.16.62-.62.28-.84-.49-1.61 1.6.11 1.93-.72 1.8.64.93-2.75-.3-1.15-1.08-2.46-8.24-13.79-16.68-27.46c-1.88-3.06-3.27-6.14-5.4-9.04q-3.24-4.4-5.95-9.15a1 .99 78 0 0-.73-.48q-.68-.09-1.16.29-.5-.77-1.21.25zm391.88-3.38c.77-1.61 2.34-2.37 4.16-2.38q14.65-.08 29.35-.01a3.24 3.24 0 0 1 3.22 3.24v40.42a1.95 1.95 0 0 1-2.85 1.73l-15.09-7.86a.85.82-44.3 0 0-.77 0l-15.48 7.96A1.93 1.93 0 0 1 475 85.8V45.63a2.89 2.89 0 0 1 .27-1.22zm18.32 30.09a.34.34 0 0 1 .32 0l13.59 7.17a.34.34 0 0 0 .5-.3V46.59a.34.34 0 0 0-.34-.34h-28.07a.34.34 0 0 0-.34.34v34.8a.34.34 0 0 0 .5.3l13.84-7.19z"/><path fill="#25255a" d="M167.5 48.1v4.05a.35.35 0 0 0 .35.35h5.65a.35.35 0 0 1 .35.32l.1 1.07a.35.35 0 0 1-.35.39l-5.75-.08a.35.35 0 0 0-.35.35v5.1a.35.35 0 0 1-.35.35h-1.72a.35.35 0 0 1-.35-.36l.24-13.55a.35.35 0 0 1 .35-.34h12.79a.35.35 0 0 1 .34.4l-.18 1.3a.35.35 0 0 1-.34.3h-10.43a.35.35 0 0 0-.35.35z"/><path fill="#fff" d="m493.59 74.5-13.84 7.19a.34.34 0 0 1-.5-.3v-34.8a.34.34 0 0 1 .34-.34h28.07a.34.34 0 0 1 .34.34v34.78a.34.34 0 0 1-.5.3l-13.59-7.17a.34.34 0 0 0-.32 0zm3.63-16.32a1.47 1.47 0 0 1-1.06-1.06l-1.01-3.91a1.47 1.47 0 0 0-2.84 0l-1.01 3.91a1.47 1.47 0 0 1-1.06 1.06l-3.91 1.01a1.47 1.47 0 0 0 0 2.84l3.91 1.01a1.47 1.47 0 0 1 1.06 1.06l1.01 3.91a1.47 1.47 0 0 0 2.84 0l1.01-3.91a1.47 1.47 0 0 1 1.06-1.06l3.91-1.01a1.47 1.47 0 0 0 0-2.84l-3.91-1.01zM84.6 47.54l30.07 51.05q-.33.83-1.93.72l-58.96.1q-.82.01-.4-.71l30.01-50.91q.71-1.02 1.21-.25zM70.22 89.45a.32.32 0 0 0 .28.48l27.11-.11a.32.32 0 0 0 .28-.48l-13.5-23.1a.32.32 0 0 0-.56 0L70.22 89.45z"/><path fill="#0f58ef" d="M114.67 98.59 84.6 47.54q.48-.38 1.16-.29a1 .99 78 0 1 .73.48q2.71 4.75 5.95 9.15c2.13 2.9 3.52 5.98 5.4 9.04q8.44 13.67 16.68 27.46.78 1.31 1.08 2.46.87 3.39-.93 2.75zm-31.28-50.8L53.38 98.7q-.42.72.4.71l58.96-.1q.77.77.49 1.61-.16.46-.62.62c-4.79 1.63-14.48.78-20.41.42q-11.13-.67-22.28-.73c-5.49-.02-15.2 3.17-18.59-2.34a.92.91-45.8 0 1-.01-.93c9.66-16.66 18.71-34.27 30.07-49.78q.29-.39.76-.55.82-.27 1.24.16z"/><path fill="#25255a" d="M184.05 58.25h8.39q.57 0 .56.57v.49q0 .69-.69.69H182q-.75 0-.75-.75V49.04q0-.65.65-.65l10.38.02a.79.79 0 0 1 .46 1.42q-.62.45-1.76.37-3.78-.28-6.46-.15a1.57 1.56 49.3 0 0-.23 3.1c1.31.26 3.08-.64 4.57.15a.77.77 0 0 1-.36 1.45h-4.48a.65.65 0 0 0-.65.71l.19 2.33q.03.46.49.46zm19.81-9.74a.91.9-5.3 0 1 .5.41l6.18 10.49q.33.55-.31.61-2.34.2-2.71-2.15a.74.74 0 0 0-.73-.62h-7.29a.8.79-76.7 0 0-.71.44c-.57 1.14-1.16 2.93-2.89 2.26q-.59-.23-.27-.77 3.12-5.19 6.3-10.28.51-.83 1.93-.39zm-3.71 6.79a.33.33 0 0 0 .3.49l5.2-.07a.33.33 0 0 0 .28-.5l-2.67-4.69a.33.33 0 0 0-.58.01l-2.53 4.76zm15.45-5.29-4.23-.02a.62.62 0 0 1-.62-.62V49q0-.5.5-.5h11.99a.8.8 0 0 1 .77 1.04q-.24.72-.98.57-2.01-.4-4.01 0a.64.64 0 0 0-.52.63v8.51q0 .75-.75.75H217q-.75 0-.75-.75v-8.59a.65.65 0 0 0-.65-.65zm14.4 8.24h7.5q.5 0 .5-.5v-8.63q0-.62.62-.62h1q.63 0 .63.63v8.71a2.15 2.15 0 0 1-2.15 2.15l-8.8.01a1.72 1.71-2.6 0 1-1.71-1.56q-.34-3.84-.47-8.18-.03-1.2.52-1.77a1.08 1.08 0 0 1 1.86.75v8.51q0 .5.5.5zm36-3v2.25q0 .75.75.75h8.47q.76 0 .53.73l-.13.43q-.19.59-.8.59h-10.36q-.55 0-.54-.54l.12-10.49q0-.49.49-.49l10.43-.05q.54-.01.54.53v.58q0 .54-.54.53l-8.45-.1q-.52-.01-.52.52l.03 2.4a.51.5 81.7 0 0 .64.48q2.41-.67 4.78-.08a.74.74 0 0 1-.18 1.46h-4.76q-.5 0-.5.5zm57.947 2.774a1.99 1.99 0 0 1-1.997 1.983l-10-.035a1.99 1.99 0 0 1-1.983-1.997l.027-7.7a1.99 1.99 0 0 1 1.997-1.983l10 .035a1.99 1.99 0 0 1 1.983 1.997l-.027 7.7zm-2.177-7.459a.32.32 0 0 0-.318-.322l-9.1-.048a.32.32 0 0 0-.322.318l-.039 7.38a.32.32 0 0 0 .318.322l9.1.048a.32.32 0 0 0 .322-.318l.039-7.38zm9.27 1.385.02 7.52q0 .53-.53.53h-.86q-.57 0-.57-.58l-.03-10.18a1.04 1.03 20.5 0 1 1.72-.78l9.27 8.11q.5.44.5-.23l-.08-7.2q-.01-.64.63-.64h.94q.49 0 .49.49l-.06 10.19a.92.92 0 0 1-1.52.69l-9.32-8.18q-.6-.53-.6.26zm-83.35 4.1.22 3.35a.56.56 0 0 1-.56.6h-1q-.64 0-.64-.65l.03-10.47q0-.38.38-.38h10.16a.84.84 0 0 1 .79.56q1 2.83-.01 5.63a.37.35 83.7 0 1-.15.2q-1.23.82-2.5.38a.39.39 0 0 0-.38.67l3.79 3.18q.46.38-.06.68c-2 1.14-4.46-2.05-6.24-3.96q-.32-.34-.78-.34h-2.53q-.55 0-.52.55zm7.561-5.201a.81.81 0 0 0-.802-.818l-5.88-.062a.81.81 0 0 0-.818.802l-.022 2.14a.81.81 0 0 0 .801.818l5.88.062a.81.81 0 0 0 .818-.802l.022-2.14zm25.509-1.979a.4.4 0 0 1 .4-.4l7.78.01a5.58 5.19.1 0 1 5.57 5.2v1.08a5.58 5.19.1 0 1-5.59 5.18l-7.78-.01a.4.4 0 0 1-.4-.4l.02-10.66zm1.98 1.78.02 7.02a.61.61 0 0 0 .61.6l4.83-.01a4.3 3.95-.2 0 0 4.29-3.97v-.34a4.3 3.95-.2 0 0-4.31-3.93l-4.83.01a.61.61 0 0 0-.61.62z"/><g fill="#fff"><rect width="7.5" height="3.76" x="-3.75" y="-1.88" rx=".81" transform="rotate(.601 -4827.899 24040.826)"/><path d="M282.74 50.65a.61.61 0 0 1 .61-.62l4.83-.01a4.3 3.95-.2 0 1 4.31 3.93v.34a4.3 3.95-.2 0 1-4.29 3.97l-4.83.01a.61.61 0 0 1-.61-.6l-.02-7.02z"/><rect width="9.74" height="8.02" x="-4.87" y="-4.01" rx=".32" transform="rotate(.303 -10195.253 60546.74)"/><path d="m200.15 55.3 2.53-4.76a.33.33 0 0 1 .58-.01l2.67 4.69a.33.33 0 0 1-.28.5l-5.2.07a.33.33 0 0 1-.3-.49z"/></g><path fill="#2c70f5" d="m497.22 58.18 3.91 1.01a1.47 1.47 0 0 1 0 2.84l-3.91 1.01a1.47 1.47 0 0 0-1.06 1.06l-1.01 3.91a1.47 1.47 0 0 1-2.84 0l-1.01-3.91a1.47 1.47 0 0 0-1.06-1.06l-3.91-1.01a1.47 1.47 0 0 1 0-2.84l3.91-1.01a1.47 1.47 0 0 0 1.06-1.06l1.01-3.91a1.47 1.47 0 0 1 2.84 0l1.01 3.91a1.47 1.47 0 0 0 1.06 1.06z"/><path fill="#0f58ef" d="m70.22 89.45 13.61-23.21a.32.32 0 0 1 .56 0l13.5 23.1a.32.32 0 0 1-.28.48l-27.11.11a.32.32 0 0 1-.28-.48zm6.36-.72c3.39.15 7.35.06 10.85-1.06q.4-.13.8-.02l3.45.96a1.35 1.35 0 0 0 1.54-1.95l-7.98-14.63a1.46 1.46 0 0 0-2.56 0l-7.62 14.02a1.82 1.81 15.5 0 0 1.52 2.68z"/><path fill="#2c70f5" d="M87.43 87.67c-3.5 1.12-7.46 1.21-10.85 1.06a1.82 1.81 15.5 0 1-1.52-2.68l7.62-14.02a1.46 1.46 0 0 1 2.56 0l7.98 14.63a1.35 1.35 0 0 1-1.54 1.95l-3.45-.96q-.4-.11-.8.02z"/><path d="M198.73 102h-7.76q-.56 0-.77.52l-2.43 5.97q-.2.51-.75.51h-1.33q-.73 0-.46-.68l8.04-20.54a1.59 1.59 0 0 1 2.95-.04l8.62 20.72q.23.54-.37.54h-1.74q-.62 0-.86-.57l-2.4-5.94q-.2-.49-.74-.49zm-7.09-3.45a.32.32 0 0 0 .3.44l5.63.02a.32.32 0 0 0 .31-.43l-2.78-7.54a.32.32 0 0 0-.6 0l-2.86 7.51z"/><rect width="2.74" height="22" x="207.75" y="87.02" rx=".43"/><path d="M221.13 90h-6.51a.37.37 0 0 1-.37-.37v-2.26a.37.37 0 0 1 .37-.37h16.26a.37.37 0 0 1 .37.37v2.26a.37.37 0 0 1-.37.37h-6.52a.37.37 0 0 0-.37.37l.02 18.26a.37.37 0 0 1-.37.37h-1.77a.37.37 0 0 1-.37-.37V90.37a.37.37 0 0 0-.37-.37zm21.773 19.028a11.04 10.23 89 0 1-10.421-10.86 11.04 10.23 89 0 1 10.036-11.217 11.04 10.23 89 0 1 10.421 10.86 11.04 10.23 89 0 1-10.036 11.217zm-.361-2.849a8.17 7.53 90.9 0 0 7.657-8.051 8.17 7.53 90.9 0 0-7.401-8.287 8.17 7.53 90.9 0 0-7.657 8.051 8.17 7.53 90.9 0 0 7.401 8.287zm23.861 2.859a11.04 10.24 89 0 1-10.431-10.86 11.04 10.24 89 0 1 10.046-11.217 11.04 10.24 89 0 1 10.431 10.86 11.04 10.24 89 0 1-10.046 11.217zm-.241-2.858a8.17 7.55 90.2 0 0 7.579-8.144 8.17 7.55 90.2 0 0-7.522-8.196 8.17 7.55 90.2 0 0-7.579 8.144 8.17 7.55 90.2 0 0 7.522 8.196zm17.278-.18h9.62a.44.44 0 0 1 .44.44v2.12a.44.44 0 0 1-.44.44h-12.14a.44.44 0 0 1-.44-.44l.03-21.12a.44.44 0 0 1 .44-.44h1.61a.44.44 0 0 1 .44.44v18.12a.44.44 0 0 0 .44.44zm15.8-13.39.02 15.79q.01.6-.59.6h-1.42q-.5 0-.5-.5V88.21a1.63 1.63 0 0 1 2.99-.89l10.71 16.39a.3.3 0 0 0 .55-.17V87.5q0-.5.5-.5h1.5q.5 0 .5.5v20.32a1.52 1.52 0 0 1-2.79.84l-10.66-16.29a.44.44 0 0 0-.81.24zM321.35 106h12.55a.35.35 0 0 1 .35.35v2.3a.35.35 0 0 1-.35.35h-14.8a.35.35 0 0 1-.35-.35v-21.3a.35.35 0 0 1 .35-.35h14.3a.35.35 0 0 1 .35.35v2.3a.35.35 0 0 1-.35.35h-12.05a.35.35 0 0 0-.35.35v5.3a.35.35 0 0 0 .35.35h11.32a.35.35 0 0 1 .35.35v2.3a.35.35 0 0 1-.35.35h-11.32a.35.35 0 0 0-.35.35v6.3a.35.35 0 0 0 .35.35zm25.12-15.68.04 18.36a.32.32 0 0 1-.32.32h-1.88a.32.32 0 0 1-.32-.32l.02-18.36a.32.32 0 0 0-.32-.32h-6.62a.32.32 0 0 1-.32-.32v-2.36a.32.32 0 0 1 .32-.32h16.11a.32.32 0 0 1 .32.32v2.36a.32.32 0 0 1-.32.32h-6.39a.32.32 0 0 0-.32.32z"/><g fill="#fff"><ellipse rx="8.17" ry="7.53" transform="rotate(90.9 73.094 168.449)"/><ellipse rx="8.17" ry="7.55" transform="rotate(90.2 84.26 181.636)"/><path d="m191.64 98.55 2.86-7.51a.32.32 0 0 1 .6 0l2.78 7.54a.32.32 0 0 1-.31.43l-5.63-.02a.32.32 0 0 1-.3-.44z"/></g><path d="M361.19 103.97c-3.11-8.99 8.62-15.63 12.1-7.27a1.15 1.15 0 0 1-1.94 1.17q-1.94-2.35-4.45-1.84c-5.64 1.14-4.53 12.55 3.29 9.43a1.01.99 86.2 0 0 .61-.71q.49-2.13 2.75-1.72.59.1.48.69c-1.43 7.15-10.6 6.74-12.84.25zm21.592 5.06a8.03 7.32 90.2 0 1-7.292-8.056 8.03 7.32 90.2 0 1 7.348-8.004 8.03 7.32 90.2 0 1 7.292 8.056 8.03 7.32 90.2 0 1-7.348 8.004zm.091-2.92a5.12 4.72 89.3 0 0 4.657-5.177 5.12 4.72 89.3 0 0-4.782-5.062 5.12 4.72 89.3 0 0-4.657 5.177 5.12 4.72 89.3 0 0 4.782 5.062zm17.897-9.78c-6.71-3.01-5.29 9.26-5.26 12.15q0 .52-.52.52h-1.51q-.53 0-.52-.52l.06-14.99q0-.49.49-.49h1.36a.56.55-86.8 0 1 .55.62l-.22 1.8a.42.41-22.8 0 0 .74.3c2.43-3.11 5.94-4.02 8.22-.02q.29.51.69.08c2.42-2.61 6.17-4.44 8.44-.49 1.47 2.56.68 9.99.75 13.16q.02.55-.53.55H412q-.5 0-.5-.5V98.3a2.04 2.04 0 0 0-1.18-1.85c-7.17-3.36-5.58 8.76-5.57 11.82a.72.72 0 0 1-.72.73h-1.28q-.5 0-.5-.5l-.01-9.89a2.5 2.49-78 0 0-1.47-2.28z"/><ellipse fill="#fff" rx="5.12" ry="4.72" transform="rotate(89.3 140.29 244.253)"/><rect width="2.76" height="3" x="-1.38" y="-1.5" rx=".61" transform="rotate(-1.6 4026.873 -12662.4)"/></svg>